# xmcd
#
# Track frame offsets:
#	150
#	19115
#	34508
#	46074
#	60582
#	72490
#	88446
#	109069
#	125839
#	138979
#
# Disc length: 1990 seconds
#
# Revision: 1
# Processed by: cddbd v1.5.2PL0 Copyright (c) Steve Scherf et al.
# Submitted via: audiograbber 1.83.01
#
DISCID=8c07c40a
DTITLE=Various Artist - Forever Country Vol. 3
DYEAR=1900
DGENRE=Country
TTITLE0=Faron Young - Georgia
TTITLE1=Donna Fargo - Great Balls Of Fire
TTITLE2=Lynn Anderson - That'll Be The Day
TTITLE3=Nat Stuckey - Margaritaville
TTITLE4=Nat Stuckey - Amanda
TTITLE5=Sandy Posey - Save The Last Dance For Me
TTITLE6=Faron Young - September Song
TTITLE7=David Houston - Blue Skys
TTITLE8=Skeeter Davis - Somebody To Love
TTITLE9=Billy Joe Royal - Wake Up Little Susie
EXTD=
EXTT0=
EXTT1=
EXTT2=
EXTT3=
EXTT4=
EXTT5=
EXTT6=
EXTT7=
EXTT8=
EXTT9=
PLAYORDER=
